<?xml version="1.0" encoding="UTF-8"?><svg id="Capa_1" xmlns="http://www.w3.org/2000/svg" viewBox="0 0 488.59 488.84"><defs><style>.cls-1{fill:#fff;}.cls-2{fill:#8b949e;}</style></defs><g id="_4"><g><path class="cls-1" d="M248.77,64.26c32.98-23.43,62.65-39.28,81.81-48.49C303.71,5.61,274.6,0,244.17,0c-7.94,0-15.78,.41-23.53,1.15-.03,.59-.07,1.16-.1,1.76-.79,13.71-1.68,29.25,3.85,36.58,4.63,6.15,13.12,15.09,24.37,24.77Z"/><path class="cls-1" d="M0,254.2c2.47,62.78,28.6,119.46,69.75,161.39,3.96-66.38,20.16-158,61.7-230.52-8.69-2.77-18.85-4.75-30.9-6.11-34.64-3.93-72.2,40.39-100.55,75.24Z"/><path class="cls-2" d="M377.34,122.12c30.46,5.66,61.47,11.46,90.1,22.87-22.03-49.38-59.89-90.14-107.21-115.71-7.57,3.1-45.61,19.4-91.21,50.82,21.86,15.5,49.28,30.19,78.47,36.27,9.82,2.04,20.01,3.93,29.86,5.76Z"/><path class="cls-1" d="M119.49,93.18c-20.07-5.99-39.77-9.6-57.43-11.73C29.69,117.6,7.97,163.44,1.7,214.09c29.23-33.41,63.3-63.75,101.6-59.42,16.26,1.84,29.84,4.93,41.38,9.28,7.92-11.57,16.56-22.5,26.08-32.49,2.58-2.71,5.18-5.38,7.78-7.99-24.92-15.66-45.89-26.35-59.06-30.28Z"/><path class="cls-2" d="M225.27,308.67c11.78,50.68,31.59,135.89,52.65,177.8,57.82-7.99,109.18-36.15,146.71-77.21-11.24-97.79-134.89-210.65-225.15-272.09-3.7,3.63-7.38,7.32-11.02,11.15-7.87,8.26-15.14,17.36-21.89,27.05,22.5,15.89,34.11,40.36,44.14,74.32,4.02,13.62,8.91,34.64,14.57,58.98Z"/><path class="cls-2" d="M444.75,384.02c27.6-39.58,43.84-87.69,43.84-139.6,0-23.21-3.3-45.63-9.35-66.9-31.03-17.31-67.93-24.23-106.37-31.36-9.98-1.85-20.3-3.77-30.37-5.87-35.98-7.48-69.04-26.18-94.29-45.16-9.98,7.58-20.14,15.84-30.27,24.81,30.4,20.9,63.63,46.91,95.11,75.91,52.49,48.37,113.83,117.38,131.71,188.18Z"/><path class="cls-1" d="M228.75,79.16c-10.74-9.62-18.99-18.49-23.87-24.96-10.27-13.62-9.86-32.36-8.92-49.43-42.31,8.46-80.63,27.88-111.99,55.13,13.57,2.32,27.9,5.49,42.5,9.86,16.27,4.85,41.33,17.67,70.41,36.21,10.66-9.7,21.35-18.62,31.87-26.81Z"/><path class="cls-2" d="M153.53,195.99c-41.95,72.93-58.6,171.18-60.24,240.64,41.56,32.67,93.92,52.21,150.88,52.21,2.63,0,5.24-.12,7.85-.2-18.38-40.38-34.11-103.69-50.55-174.44-5.57-23.96-10.38-44.66-14.2-57.59-8.71-29.51-17.47-48.53-33.74-60.62Z"/></g></g></svg>